<svg id="visual" viewBox="0 0 900 600" width="900" height="600" xmlns="http://www.w3.org/2000/svg" xmlns:xlink="http://www.w3.org/1999/xlink" version="1.1"><g stroke-width="1" stroke-linejoin="bevel"><path d="M448 299L446 152L302 296Z" fill="#6300a5" stroke="#6300a5"></path><path d="M446 152L303 146L302 296Z" fill="#6300a5" stroke="#6300a5"></path><path d="M448 299L601 151L446 152Z" fill="#7700c6" stroke="#7700c6"></path><path d="M302 296L446 452L448 299Z" fill="#560090" stroke="#560090"></path><path d="M448 299L446 452L597 302Z" fill="#9200f3" stroke="#9200f3"></path><path d="M597 302L601 151L448 299Z" fill="#8400dc" stroke="#8400dc"></path><path d="M446 152L447 0L303 146Z" fill="#9900ff" stroke="#9900ff"></path><path d="M599 0L447 0L446 152Z" fill="#8400dc" stroke="#8400dc"></path><path d="M147 149L150 298L302 296Z" fill="#9900ff" stroke="#9900ff"></path><path d="M302 296L300 452L446 452Z" fill="#6a00b0" stroke="#6a00b0"></path><path d="M147 149L302 296L303 146Z" fill="#8b00e8" stroke="#8b00e8"></path><path d="M149 447L300 452L302 296Z" fill="#8400dc" stroke="#8400dc"></path><path d="M447 0L301 0L303 146Z" fill="#8b00e8" stroke="#8b00e8"></path><path d="M153 0L147 149L303 146Z" fill="#7e00d1" stroke="#7e00d1"></path><path d="M446 452L600 450L597 302Z" fill="#7e00d1" stroke="#7e00d1"></path><path d="M597 302L746 302L601 151Z" fill="#6300a5" stroke="#6300a5"></path><path d="M0 302L149 447L150 298Z" fill="#7700c6" stroke="#7700c6"></path><path d="M150 298L149 447L302 296Z" fill="#9200f3" stroke="#9200f3"></path><path d="M601 151L599 0L446 152Z" fill="#8b00e8" stroke="#8b00e8"></path><path d="M301 0L153 0L303 146Z" fill="#7000bb" stroke="#7000bb"></path><path d="M600 450L746 302L597 302Z" fill="#560090" stroke="#560090"></path><path d="M601 151L746 0L599 0Z" fill="#8400dc" stroke="#8400dc"></path><path d="M296 600L452 600L446 452Z" fill="#8400dc" stroke="#8400dc"></path><path d="M446 452L452 600L600 450Z" fill="#6300a5" stroke="#6300a5"></path><path d="M296 600L446 452L300 452Z" fill="#5c009b" stroke="#5c009b"></path><path d="M746 302L750 149L601 151Z" fill="#9200f3" stroke="#9200f3"></path><path d="M149 447L296 600L300 452Z" fill="#7700c6" stroke="#7700c6"></path><path d="M0 0L0 151L147 149Z" fill="#8b00e8" stroke="#8b00e8"></path><path d="M147 149L0 151L150 298Z" fill="#8400dc" stroke="#8400dc"></path><path d="M0 151L0 302L150 298Z" fill="#9900ff" stroke="#9900ff"></path><path d="M149 447L148 600L296 600Z" fill="#7000bb" stroke="#7000bb"></path><path d="M600 450L748 446L746 302Z" fill="#8400dc" stroke="#8400dc"></path><path d="M900 301L900 152L750 149Z" fill="#8400dc" stroke="#8400dc"></path><path d="M753 600L748 446L600 450Z" fill="#9900ff" stroke="#9900ff"></path><path d="M452 600L596 600L600 450Z" fill="#7700c6" stroke="#7700c6"></path><path d="M750 149L746 0L601 151Z" fill="#9200f3" stroke="#9200f3"></path><path d="M0 453L148 600L149 447Z" fill="#7e00d1" stroke="#7e00d1"></path><path d="M153 0L0 0L147 149Z" fill="#9200f3" stroke="#9200f3"></path><path d="M0 302L0 453L149 447Z" fill="#7e00d1" stroke="#7e00d1"></path><path d="M900 301L750 149L746 302Z" fill="#560090" stroke="#560090"></path><path d="M750 149L900 0L746 0Z" fill="#6a00b0" stroke="#6a00b0"></path><path d="M900 452L900 301L748 446Z" fill="#7e00d1" stroke="#7e00d1"></path><path d="M748 446L900 301L746 302Z" fill="#7700c6" stroke="#7700c6"></path><path d="M0 453L0 600L148 600Z" fill="#7000bb" stroke="#7000bb"></path><path d="M596 600L753 600L600 450Z" fill="#7700c6" stroke="#7700c6"></path><path d="M753 600L900 452L748 446Z" fill="#9900ff" stroke="#9900ff"></path><path d="M900 152L900 0L750 149Z" fill="#6a00b0" stroke="#6a00b0"></path><path d="M753 600L900 600L900 452Z" fill="#6a00b0" stroke="#6a00b0"></path></g></svg>