<svg id="visual" viewBox="0 0 900 600" width="900" height="600" xmlns="http://www.w3.org/2000/svg" xmlns:xlink="http://www.w3.org/1999/xlink" version="1.1"><g stroke-width="1" stroke-linejoin="bevel"><path d="M303 301L598 600L602 297Z" fill="#8b00e8" stroke="#8b00e8"></path><path d="M303 301L298 600L598 600Z" fill="#560090" stroke="#560090"></path><path d="M900 600L900 299L602 297Z" fill="#8b00e8" stroke="#8b00e8"></path><path d="M900 0L602 0L602 297Z" fill="#8400dc" stroke="#8400dc"></path><path d="M602 297L302 0L303 301Z" fill="#560090" stroke="#560090"></path><path d="M598 600L900 600L602 297Z" fill="#8400dc" stroke="#8400dc"></path><path d="M602 0L302 0L602 297Z" fill="#7700c6" stroke="#7700c6"></path><path d="M303 301L0 297L298 600Z" fill="#6a00b0" stroke="#6a00b0"></path><path d="M302 0L0 297L303 301Z" fill="#9900ff" stroke="#9900ff"></path><path d="M0 297L0 600L298 600Z" fill="#5c009b" stroke="#5c009b"></path><path d="M900 299L900 0L602 297Z" fill="#5c009b" stroke="#5c009b"></path><path d="M302 0L0 0L0 297Z" fill="#9900ff" stroke="#9900ff"></path></g></svg>