<svg id="visual" viewBox="0 0 900 600" width="900" height="600" xmlns="http://www.w3.org/2000/svg" xmlns:xlink="http://www.w3.org/1999/xlink" version="1.1"><g stroke-width="1" stroke-linejoin="bevel"><path d="M448 203L225 202L449 398Z" fill="#9900ff" stroke="#9900ff"></path><path d="M225 202L221 400L449 398Z" fill="#8b00e8" stroke="#8b00e8"></path><path d="M221 400L225 600L449 398Z" fill="#6300a5" stroke="#6300a5"></path><path d="M448 203L446 0L225 202Z" fill="#6300a5" stroke="#6300a5"></path><path d="M225 600L453 600L449 398Z" fill="#8400dc" stroke="#8400dc"></path><path d="M449 398L673 403L448 203Z" fill="#7e00d1" stroke="#7e00d1"></path><path d="M448 203L671 0L446 0Z" fill="#6300a5" stroke="#6300a5"></path><path d="M446 0L222 0L225 202Z" fill="#7700c6" stroke="#7700c6"></path><path d="M225 202L0 398L221 400Z" fill="#7000bb" stroke="#7000bb"></path><path d="M221 400L0 600L225 600Z" fill="#8400dc" stroke="#8400dc"></path><path d="M0 197L0 398L225 202Z" fill="#7e00d1" stroke="#7e00d1"></path><path d="M222 0L0 197L225 202Z" fill="#7000bb" stroke="#7000bb"></path><path d="M453 600L673 403L449 398Z" fill="#560090" stroke="#560090"></path><path d="M673 403L677 199L448 203Z" fill="#7e00d1" stroke="#7e00d1"></path><path d="M0 398L0 600L221 400Z" fill="#6a00b0" stroke="#6a00b0"></path><path d="M677 199L671 0L448 203Z" fill="#9200f3" stroke="#9200f3"></path><path d="M453 600L673 600L673 403Z" fill="#6a00b0" stroke="#6a00b0"></path><path d="M673 403L900 399L677 199Z" fill="#7700c6" stroke="#7700c6"></path><path d="M222 0L0 0L0 197Z" fill="#6300a5" stroke="#6300a5"></path><path d="M900 600L900 399L673 403Z" fill="#8400dc" stroke="#8400dc"></path><path d="M677 199L900 0L671 0Z" fill="#8b00e8" stroke="#8b00e8"></path><path d="M900 399L900 199L677 199Z" fill="#8400dc" stroke="#8400dc"></path><path d="M673 600L900 600L673 403Z" fill="#6a00b0" stroke="#6a00b0"></path><path d="M900 199L900 0L677 199Z" fill="#7000bb" stroke="#7000bb"></path></g></svg>